<svg width="1128" height="1980" viewBox="0 0 1128 1980" fill="none" xmlns="http://www.w3.org/2000/svg">
<path d="M176.287 367.557C179.145 424.882 213.498 532.339 328.047 503.564C359.233 495.73 382.326 485.071 399.211 472.841C397.153 411.952 365.772 361.589 350.338 344.019C292.694 349.025 228.927 356.643 176.287 367.557Z" fill="black"/>
<path d="M917.937 367.557C883.188 362.39 812.589 349.047 759.318 342.384C742.456 403.247 736.171 487.907 817.101 509.559C865.116 522.405 905.772 518.939 935.893 492.703C935.893 446.729 935.893 413.642 917.937 367.557Z" fill="black"/>
<path fill-rule="evenodd" clip-rule="evenodd" d="M563.831 187.552C471.232 187.552 386.687 156.721 303.519 110.476C220.352 64.2301 178.427 5.41593e-05 156.184 0C133.942 -5.41593e-05 8.98791 228.659 7.36143 278.331C6.09934 316.874 8.50183 631.168 14.2039 817.864C17.5377 937.76 62.1008 1082.49 156.184 1204.96C268.229 1336.84 365.734 1554.37 365.734 1689.68V1869.52C345.777 1880.09 324.902 1894.73 334.088 1920.91C345.207 1952.6 373.717 1950.31 388.827 1945.74C390.253 1960.02 403.753 1980 433.303 1980C465.804 1980 472.362 1957.73 475.213 1945.74C491.464 1950.31 520.544 1952.6 528.242 1916.63C533.323 1892.88 510.673 1875.46 488.898 1869.52V1169.84C488.898 1125.31 535.43 1110.75 564.169 1110.75C592.907 1110.75 639.102 1130.45 639.102 1169.84V1869.57C614.418 1869.57 594.677 1892.07 599.758 1915.8C607.456 1951.75 636.537 1950.32 652.787 1945.76C655.638 1957.74 662.196 1980 694.697 1980C724.247 1980 737.748 1960.03 739.173 1945.76C754.283 1950.32 782.794 1952.61 793.913 1920.93C803.098 1894.77 782.223 1880.13 762.266 1869.57V1689.81C762.266 1554.55 859.771 1337.12 971.816 1205.29C1065.9 1082.88 1110.46 938.211 1113.8 818.366C1119.5 631.751 1113.8 316.878 1113.8 278.331C1113.8 239.783 985.064 0 949.141 0C913.218 0 848.652 79.6108 777.662 128.405C706.671 177.199 649.051 187.552 563.831 187.552ZM328.047 503.564C213.498 532.339 179.145 424.882 176.287 367.557C228.927 356.643 292.694 349.025 350.338 344.019C378.473 341.576 405.15 339.755 428.362 338.477C440.434 364.757 459.85 428.923 399.211 472.841C382.326 485.071 359.233 495.73 328.047 503.564ZM759.318 342.384C812.589 349.047 883.188 362.39 917.937 367.557C937.934 370.531 963.149 369.695 985.923 367.557C986.946 421.079 968.522 464.282 935.893 492.703C905.772 518.939 865.116 522.405 817.101 509.559C736.171 487.907 742.456 403.247 759.318 342.384Z" fill="url(#paint0_linear_1102_31)"/>
<path d="M1113.8 1813.86V818.366C1110.46 938.211 1065.9 1082.88 971.816 1205.29V1813.86C958.131 1818.99 941.025 1833.55 951.288 1858.37C961.552 1883.2 985.501 1884.05 994.909 1875.49C997.475 1890.62 1010.3 1908.88 1035.11 1908.88C1059.91 1908.88 1072.74 1890.04 1074.45 1875.49C1085.29 1886.05 1109.52 1879.77 1120.64 1865.22C1131.76 1850.67 1130.9 1825.84 1113.8 1813.86Z" fill="url(#paint1_linear_1102_31)"/>
<path d="M14.2039 817.864L14.2038 1813.8C-2.9024 1825.79 -3.75751 1850.62 7.3614 1865.18C18.4803 1879.74 42.7139 1886.02 53.5478 1875.46C55.2584 1890.02 68.088 1908.86 92.8918 1908.86C117.696 1908.86 130.525 1890.59 133.091 1875.46C142.499 1884.02 166.448 1883.17 176.712 1858.33C186.975 1833.5 169.869 1818.94 156.184 1813.8L156.184 1204.96C62.1008 1082.49 17.5377 937.76 14.2039 817.864Z" fill="url(#paint2_linear_1102_31)"/>
<path d="M428.362 338.477C405.15 339.755 378.473 341.576 350.338 344.019C365.772 361.589 397.153 411.952 399.211 472.841C459.85 428.923 440.434 364.757 428.362 338.477Z" fill="white"/>
<path d="M985.923 367.557C963.149 369.695 937.934 370.531 917.937 367.557C935.893 413.642 935.893 446.729 935.893 492.703C968.522 464.282 986.946 421.079 985.923 367.557Z" fill="white"/>
<ellipse cx="336.101" cy="386.238" rx="24.0072" ry="23.9792" fill="white"/>
<ellipse cx="893.41" cy="399.941" rx="24.0072" ry="23.9792" fill="white"/>
<path d="M500.721 456.464C553.022 483.012 666.199 459.889 673.916 407.649" stroke="black" stroke-width="20.5812" stroke-linecap="round"/>
<path d="M465.568 335.71C390.117 338.279 264.08 341.705 120.036 379.386M703.925 330.572C769.945 341.705 871.118 370.822 936.281 369.11C1001.44 367.397 1033.17 365.684 1038.31 365.684" stroke="black" stroke-width="18.8661" stroke-linecap="round"/>
<defs>
<linearGradient id="paint0_linear_1102_31" x1="564" y1="0" x2="564" y2="1980" gradientUnits="userSpaceOnUse">
<stop offset="0.0514282" stop-color="#E6C4FF"/>
<stop offset="0.291428" stop-color="#9C65B0"/>
</linearGradient>
<linearGradient id="paint1_linear_1102_31" x1="564" y1="0" x2="564" y2="1980" gradientUnits="userSpaceOnUse">
<stop stop-color="#19131B"/>
<stop offset="0.826428" stop-color="#B279C6"/>
</linearGradient>
<linearGradient id="paint2_linear_1102_31" x1="564" y1="0" x2="564" y2="1980" gradientUnits="userSpaceOnUse">
<stop stop-color="#563A60"/>
<stop offset="0.861428" stop-color="#B278C6"/>
</linearGradient>
</defs>
</svg>
