<svg width="1005" height="776" viewBox="0 0 1005 776" fill="none" xmlns="http://www.w3.org/2000/svg">
<path d="M0.558376 335.526C10.4381 147.81 278.425 10.3166 438.971 0.0251592C473.962 -2.21785 463.67 188.976 463.67 212.029C463.67 265.544 406.038 261.428 406.038 321.118C406.038 380.809 436.913 426.091 496.603 426.091C574.818 426.091 595.4 372.575 595.4 321.118C595.4 269.661 533.652 247.02 533.652 222.32C533.652 202.561 519.244 -2.60979 556.293 0.0251592C710.664 11.0027 1005 126.404 1005 368.459C1005 671.027 768.296 776 484.254 776C181.687 776 -11.7913 570.171 0.558376 335.526Z" fill="white"/>
</svg>
