<svg width="1800" height="1024" viewBox="0 0 1800 1024" fill="none" xmlns="http://www.w3.org/2000/svg">
<rect width="1800" height="1024" fill="black"/>
<path d="M762.225 525.5C759.247 462.973 785.725 390 846.725 390C873.725 390 882.225 404 883.225 424C884.225 444 870.225 452.5 870.225 471.5C870.225 490.5 889.725 502 904.225 502.5C918.725 503 936.725 495 936.725 471.5C936.725 448 922.225 438.5 921.725 424C921.225 409.5 940.725 390 971.225 390C1001.73 390 1043.22 411.5 1037.72 517C1034.1 586.5 979.225 633.5 897.725 633.5C828.196 633.5 764.725 578 762.225 525.5Z" fill="white"/>
</svg>
